<svg xmlns="http://www.w3.org/2000/svg" viewBox="0 0 90 36" fill="none">
<g clip-path="url(#clip0_6411_9826)">
<path d="M53.5271 0H57.4407C57.5389 0 57.6331 0.0390465 57.7025 0.10855C57.7719 0.178053 57.811 0.272319 57.811 0.370612V28.2036C57.811 28.3019 57.7719 28.3961 57.7025 28.4656C57.6331 28.5351 57.5389 28.5742 57.4407 28.5742H53.5271C53.4289 28.5742 53.3347 28.5351 53.2653 28.4656C53.1959 28.3961 53.1569 28.3019 53.1569 28.2036V0.370612C53.1569 0.272319 53.1959 0.178053 53.2653 0.10855C53.3347 0.0390465 53.4289 0 53.5271 0V0Z" fill="#6D40FF"/>
<path d="M63.9424 2.24361C63.8652 2.15586 63.7703 2.08557 63.6639 2.03742C63.5575 1.98926 63.4421 1.96436 63.3253 1.96436C63.2085 1.96436 63.0931 1.98926 62.9867 2.03742C62.8803 2.08557 62.7853 2.15586 62.7082 2.24361L60.283 4.99479C60.1941 5.09609 60.1361 5.22091 60.1162 5.35431C60.0963 5.4877 60.1152 5.62402 60.1707 5.74693C60.2262 5.86985 60.3159 5.97416 60.429 6.04737C60.5422 6.12058 60.674 6.1596 60.8088 6.15974H65.8393C65.974 6.1596 66.1059 6.12058 66.2191 6.04737C66.3322 5.97416 66.4219 5.86985 66.4774 5.74693C66.5329 5.62402 66.5518 5.4877 66.5319 5.35431C66.5119 5.22091 66.454 5.09609 66.3651 4.99479L63.9424 2.24361Z" fill="#6D40FF"/>
<path d="M65.2802 8.72656H61.3703C61.1631 8.72656 60.9951 8.8947 60.9951 9.10212V28.2096C60.9951 28.417 61.1631 28.5852 61.3703 28.5852H65.2802C65.4874 28.5852 65.6554 28.417 65.6554 28.2096V9.10212C65.6554 8.8947 65.4874 8.72656 65.2802 8.72656Z" fill="#6D40FF"/>
<path d="M19.9883 8.23505C17.8087 8.23505 15.8883 9.09982 14.2777 10.8009C12.6671 9.09858 10.7467 8.23505 8.56715 8.23505C7.49519 8.22755 6.4331 8.44033 5.4466 8.86021C4.4601 9.2801 3.57018 9.89816 2.83191 10.6762C1.3427 12.2631 0.523387 14.3645 0.544972 16.5417V28.2098C0.544972 28.3081 0.583978 28.4024 0.653414 28.4719C0.722851 28.5414 0.817028 28.5804 0.915226 28.5804H4.78685C4.88505 28.5804 4.97923 28.5414 5.04866 28.4719C5.1181 28.4024 5.15711 28.3081 5.15711 28.2098V16.5417C5.13851 15.5828 5.47479 14.6509 6.10126 13.9252C6.41477 13.5873 6.79452 13.3179 7.21679 13.1336C7.63906 12.9493 8.09476 12.8542 8.55542 12.8542C9.01608 12.8542 9.47178 12.9493 9.89405 13.1336C10.3163 13.3179 10.6961 13.5873 11.0096 13.9252C11.6356 14.6512 11.9718 15.5829 11.9537 16.5417V28.2098C11.9537 28.3081 11.9928 28.4024 12.0622 28.4719C12.1316 28.5414 12.2258 28.5804 12.324 28.5804H16.1969C16.246 28.5812 16.2948 28.5722 16.3404 28.554C16.3861 28.5357 16.4276 28.5086 16.4627 28.4741C16.4977 28.4396 16.5255 28.3984 16.5445 28.3531C16.5635 28.3077 16.5733 28.259 16.5733 28.2098V16.5417C16.555 15.5831 16.8908 14.6514 17.5162 13.9252C17.8298 13.5873 18.2097 13.3178 18.6321 13.1335C19.0544 12.9492 19.5102 12.8541 19.971 12.8541C20.4317 12.8541 20.8875 12.9492 21.3099 13.1335C21.7323 13.3178 22.1121 13.5873 22.4258 13.9252C23.0517 14.6512 23.3879 15.5829 23.3699 16.5417V28.2098C23.3699 28.3081 23.4089 28.4024 23.4784 28.4719C23.5478 28.5414 23.642 28.5804 23.7402 28.5804H27.613C27.7112 28.5804 27.8054 28.5414 27.8748 28.4719C27.9443 28.4024 27.9833 28.3081 27.9833 28.2098V16.5417C28.0048 14.3648 27.186 12.2635 25.6976 10.6762C24.9622 9.90147 24.0765 9.28535 23.0947 8.86558C22.1129 8.44581 21.0558 8.23125 19.9883 8.23505Z" fill="#6D40FF"/>
<path d="M50.4059 16.5912C50.322 15.996 50.1983 15.407 50.0356 14.8284C49.6853 13.5741 49.09 12.4018 48.2843 11.3792C47.4501 10.3332 46.3969 9.48307 45.1989 8.88869C43.9486 8.25618 42.4047 7.93498 40.6102 7.93498C39.165 7.92231 37.7321 8.20086 36.3967 8.75404C35.1417 9.27593 34.0053 10.0466 33.0557 11.0197C32.1119 12.0015 31.3668 13.1568 30.8614 14.4219C30.4942 15.3694 30.2495 16.3599 30.1332 17.3695C30.0859 17.7974 30.0632 18.2276 30.0653 18.658C30.0626 20.098 30.3093 21.5275 30.7947 22.883C31.1833 23.9787 31.7689 24.994 32.5226 25.8788C32.6855 26.0641 33.0088 26.4186 33.1816 26.5891C34.055 27.4366 35.0833 28.1077 36.2103 28.5657C36.6822 28.7618 37.1682 28.922 37.6642 29.045C38.6148 29.2757 39.59 29.3898 40.5682 29.3848C42.9551 29.3848 45.0458 28.84 46.7848 27.7627L46.8292 27.7355C47.7426 27.161 48.5577 26.4432 49.2433 25.6095C49.3148 25.523 49.4642 25.3364 49.574 25.1981C49.6018 25.1638 49.6223 25.1242 49.6344 25.0817C49.6465 25.0393 49.6499 24.9948 49.6444 24.951C49.6396 24.9072 49.6263 24.8648 49.6051 24.8262C49.5839 24.7877 49.5553 24.7536 49.521 24.7262L46.6799 22.5643C46.6221 22.519 46.5508 22.4946 46.4775 22.4951C46.4286 22.4957 46.3805 22.5071 46.3366 22.5284C46.2926 22.5498 46.2539 22.5806 46.2232 22.6186L46.1282 22.7286C45.2902 23.6539 44.5953 24.0875 43.9239 24.4976C43.0591 25.0158 42.066 25.28 41.0582 25.2599C40.4732 25.2602 39.8903 25.191 39.3217 25.0535C39.0934 24.998 38.8724 24.93 38.6651 24.8621C38.1241 24.6905 37.6028 24.4619 37.11 24.1801C36.9471 24.0809 36.7909 23.9711 36.6423 23.8515C36.546 23.7712 36.446 23.686 36.3387 23.5896C35.8948 23.2106 35.5245 22.7528 35.2464 22.2394C35.1165 21.9925 35.0099 21.734 34.928 21.4673C34.8455 21.1947 34.7881 20.9152 34.7564 20.6321H50.2269C50.3151 20.6321 50.3996 20.5972 50.4621 20.5349C50.5246 20.4726 50.5598 20.3881 50.5601 20.2998C50.5601 20.2381 50.5737 18.7853 50.5527 18.2392C50.5429 17.8612 50.4861 17.1793 50.4059 16.5912ZM40.4904 12.0723C41.4889 12.0723 42.3417 12.2464 43.0193 12.5899C43.6743 12.9138 44.2502 13.3776 44.7064 13.9488C45.1481 14.5122 45.474 15.1575 45.6654 15.8476C45.7234 16.0539 45.774 16.2676 45.8159 16.485H34.8317C35.0759 15.4654 35.5871 14.5294 36.3127 13.7734C36.8358 13.2378 37.4618 12.8138 38.1529 12.5269C38.894 12.221 39.6889 12.0677 40.4904 12.076V12.0723Z" fill="#6D40FF"/>
<path d="M81.0579 31.8047H76.0274C75.8924 31.8046 75.7603 31.8436 75.6469 31.9168C75.5335 31.9901 75.4436 32.0946 75.3881 32.2178C75.3326 32.3409 75.3138 32.4775 75.3339 32.6111C75.354 32.7447 75.4123 32.8696 75.5016 32.9709L77.9268 35.7221C78.0038 35.81 78.0987 35.8804 78.2051 35.9287C78.3116 35.977 78.4271 36.0019 78.5439 36.0019C78.6607 36.0019 78.7762 35.977 78.8826 35.9287C78.9891 35.8804 79.084 35.81 79.161 35.7221L81.5861 32.9709C81.6754 32.8697 81.7337 32.7449 81.7538 32.6114C81.774 32.4779 81.7553 32.3414 81.6999 32.2183C81.6446 32.0952 81.5549 31.9907 81.4417 31.9173C81.3285 31.844 81.1965 31.8049 81.0616 31.8047H81.0579Z" fill="#6D40FF"/>
<path d="M88.3779 14.4751C87.8514 13.2094 87.092 12.054 86.1391 11.0691C85.1835 10.0885 84.0456 9.30412 82.7895 8.76023C81.4771 8.20501 80.0668 7.91895 78.642 7.91895C77.2172 7.91895 75.8069 8.20501 74.4946 8.76023C73.2383 9.30378 72.1004 10.0882 71.145 11.0691C70.192 12.0541 69.4321 13.2095 68.905 14.4751C68.3559 15.8002 68.0785 17.2223 68.0892 18.6568C68.0802 20.0972 68.3575 21.525 68.905 22.8571C69.9456 25.418 71.9545 27.4639 74.4946 28.5497C75.8069 29.1049 77.2172 29.391 78.642 29.391C80.0668 29.391 81.4771 29.1049 82.7895 28.5497C85.3296 27.4639 87.3385 25.418 88.3791 22.8571C88.9259 21.5248 89.2031 20.0971 89.1949 18.6568C89.2051 17.2222 88.9273 15.8001 88.3779 14.4751V14.4751ZM72.9506 18.6568C72.9428 17.8054 73.0788 16.9587 73.3529 16.1527C73.596 15.4311 73.9813 14.7657 74.4859 14.1959C74.985 13.6479 75.5945 13.2121 76.2743 12.9173C77.7935 12.2896 79.4992 12.2896 81.0184 12.9173C81.6981 13.2129 82.3078 13.6486 82.808 14.1959C83.3116 14.7665 83.6967 15.4317 83.941 16.1527C84.4758 17.7792 84.4758 19.5344 83.941 21.1609C83.697 21.8821 83.3119 22.5473 82.808 23.1177C82.3078 23.665 81.6981 24.1007 81.0184 24.3963C79.4989 25.0222 77.7939 25.0222 76.2743 24.3963C75.595 24.1006 74.9857 23.665 74.4859 23.1177C73.9813 22.5479 73.596 21.8825 73.3529 21.1609C73.0772 20.3551 72.9394 19.5085 72.9457 18.6568H72.9506Z" fill="#6D40FF"/>
</g>
<defs>
<clipPath id="clip0_6411_9826">
<rect width="88.65" height="36" fill="white" transform="translate(0.544922)"/>
</clipPath>
</defs>
</svg>